<svg width="101" height="24" viewBox="0 0 101 24" fill="none" xmlns="http://www.w3.org/2000/svg">
<path d="M13.7617 12.5859C13.5508 14.3906 12.8828 15.7852 11.7578 16.7695C10.6406 17.7461 9.15234 18.2344 7.29297 18.2344C5.27734 18.2344 3.66016 17.5117 2.44141 16.0664C1.23047 14.6211 0.625 12.6875 0.625 10.2656V8.625C0.625 7.03906 0.90625 5.64453 1.46875 4.44141C2.03906 3.23828 2.84375 2.31641 3.88281 1.67578C4.92188 1.02734 6.125 0.703125 7.49219 0.703125C9.30469 0.703125 10.7578 1.21094 11.8516 2.22656C12.9453 3.23438 13.582 4.63281 13.7617 6.42188H11.5C11.3047 5.0625 10.8789 4.07812 10.2227 3.46875C9.57422 2.85938 8.66406 2.55469 7.49219 2.55469C6.05469 2.55469 4.92578 3.08594 4.10547 4.14844C3.29297 5.21094 2.88672 6.72266 2.88672 8.68359V10.3359C2.88672 12.1875 3.27344 13.6602 4.04688 14.7539C4.82031 15.8477 5.90234 16.3945 7.29297 16.3945C8.54297 16.3945 9.5 16.1133 10.1641 15.5508C10.8359 14.9805 11.2812 13.9922 11.5 12.5859H13.7617ZM15.9297 11.543C15.9297 10.3008 16.1719 9.18359 16.6562 8.19141C17.1484 7.19922 17.8281 6.43359 18.6953 5.89453C19.5703 5.35547 20.5664 5.08594 21.6836 5.08594C23.4102 5.08594 24.8047 5.68359 25.8672 6.87891C26.9375 8.07422 27.4727 9.66406 27.4727 11.6484V11.8008C27.4727 13.0352 27.2344 14.1445 26.7578 15.1289C26.2891 16.1055 25.6133 16.8672 24.7305 17.4141C23.8555 17.9609 22.8477 18.2344 21.707 18.2344C19.9883 18.2344 18.5938 17.6367 17.5234 16.4414C16.4609 15.2461 15.9297 13.6641 15.9297 11.6953V11.543ZM18.1094 11.8008C18.1094 13.207 18.4336 14.3359 19.082 15.1875C19.7383 16.0391 20.6133 16.4648 21.707 16.4648C22.8086 16.4648 23.6836 16.0352 24.332 15.1758C24.9805 14.3086 25.3047 13.0977 25.3047 11.543C25.3047 10.1523 24.9727 9.02734 24.3086 8.16797C23.6523 7.30078 22.7773 6.86719 21.6836 6.86719C20.6133 6.86719 19.75 7.29297 19.0938 8.14453C18.4375 8.99609 18.1094 10.2148 18.1094 11.8008ZM40.9023 11.8008C40.9023 13.7305 40.4609 15.2852 39.5781 16.4648C38.6953 17.6445 37.5 18.2344 35.9922 18.2344C34.4531 18.2344 33.2422 17.7461 32.3594 16.7695V22.875H30.1914V5.32031H32.1719L32.2773 6.72656C33.1602 5.63281 34.3867 5.08594 35.957 5.08594C37.4805 5.08594 38.6836 5.66016 39.5664 6.80859C40.457 7.95703 40.9023 9.55469 40.9023 11.6016V11.8008ZM38.7344 11.5547C38.7344 10.125 38.4297 8.99609 37.8203 8.16797C37.2109 7.33984 36.375 6.92578 35.3125 6.92578C34 6.92578 33.0156 7.50781 32.3594 8.67188V14.7305C33.0078 15.8867 34 16.4648 35.3359 16.4648C36.375 16.4648 37.1992 16.0547 37.8086 15.2344C38.4258 14.4062 38.7344 13.1797 38.7344 11.5547ZM47.6758 14.8242L50.6289 5.32031H52.9492L47.8516 19.957C47.0625 22.0664 45.8086 23.1211 44.0898 23.1211L43.6797 23.0859L42.8711 22.9336V21.1758L43.457 21.2227C44.1914 21.2227 44.7617 21.0742 45.168 20.7773C45.582 20.4805 45.9219 19.9375 46.1875 19.1484L46.668 17.8594L42.1445 5.32031H44.5117L47.6758 14.8242ZM61.0234 7.26562C60.6953 7.21094 60.3398 7.18359 59.957 7.18359C58.5352 7.18359 57.5703 7.78906 57.0625 9V18H54.8945V5.32031H57.0039L57.0391 6.78516C57.75 5.65234 58.7578 5.08594 60.0625 5.08594C60.4844 5.08594 60.8047 5.14062 61.0234 5.25V7.26562ZM65.3828 18H63.2148V5.32031H65.3828V18ZM63.0391 1.95703C63.0391 1.60547 63.1445 1.30859 63.3555 1.06641C63.5742 0.824219 63.8945 0.703125 64.3164 0.703125C64.7383 0.703125 65.0586 0.824219 65.2773 1.06641C65.4961 1.30859 65.6055 1.60547 65.6055 1.95703C65.6055 2.30859 65.4961 2.60156 65.2773 2.83594C65.0586 3.07031 64.7383 3.1875 64.3164 3.1875C63.8945 3.1875 63.5742 3.07031 63.3555 2.83594C63.1445 2.60156 63.0391 2.30859 63.0391 1.95703ZM68.3477 11.5547C68.3477 9.57812 68.8047 8.00781 69.7188 6.84375C70.6328 5.67188 71.8438 5.08594 73.3516 5.08594C74.8984 5.08594 76.1055 5.63281 76.9727 6.72656L77.0781 5.32031H79.0586V17.6953C79.0586 19.3359 78.5703 20.6289 77.5938 21.5742C76.625 22.5195 75.3203 22.9922 73.6797 22.9922C72.7656 22.9922 71.8711 22.7969 70.9961 22.4062C70.1211 22.0156 69.4531 21.4805 68.9922 20.8008L70.1172 19.5C71.0469 20.6484 72.1836 21.2227 73.5273 21.2227C74.582 21.2227 75.4023 20.9258 75.9883 20.332C76.582 19.7383 76.8789 18.9023 76.8789 17.8242V16.7344C76.0117 17.7344 74.8281 18.2344 73.3281 18.2344C71.8438 18.2344 70.6406 17.6367 69.7188 16.4414C68.8047 15.2461 68.3477 13.6172 68.3477 11.5547ZM70.5273 11.8008C70.5273 13.2305 70.8203 14.3555 71.4062 15.1758C71.9922 15.9883 72.8125 16.3945 73.8672 16.3945C75.2344 16.3945 76.2383 15.7734 76.8789 14.5312V8.74219C76.2148 7.53125 75.2188 6.92578 73.8906 6.92578C72.8359 6.92578 72.0117 7.33594 71.418 8.15625C70.8242 8.97656 70.5273 10.1914 70.5273 11.8008ZM84.5078 6.85547C85.4688 5.67578 86.7188 5.08594 88.2578 5.08594C90.9375 5.08594 92.2891 6.59766 92.3125 9.62109V18H90.1445V9.60938C90.1367 8.69531 89.9258 8.01953 89.5117 7.58203C89.1055 7.14453 88.4688 6.92578 87.6016 6.92578C86.8984 6.92578 86.2812 7.11328 85.75 7.48828C85.2188 7.86328 84.8047 8.35547 84.5078 8.96484V18H82.3398V0H84.5078V6.85547ZM98.5 2.25V5.32031H100.867V6.99609H98.5V14.8594C98.5 15.3672 98.6055 15.75 98.8164 16.0078C99.0273 16.2578 99.3867 16.3828 99.8945 16.3828C100.145 16.3828 100.488 16.3359 100.926 16.2422V18C100.355 18.1562 99.8008 18.2344 99.2617 18.2344C98.293 18.2344 97.5625 17.9414 97.0703 17.3555C96.5781 16.7695 96.332 15.9375 96.332 14.8594V6.99609H94.0234V5.32031H96.332V2.25H98.5Z" fill="white"/>
</svg>
