<svg width="308" height="61" viewBox="0 0 308 61" fill="none" xmlns="http://www.w3.org/2000/svg">
<path d="M35.8438 42.0312C34.3021 44.2396 32.1458 45.8958 29.375 47C26.625 48.0833 23.4167 48.625 19.75 48.625C16.0417 48.625 12.75 47.7604 9.875 46.0312C7 44.2812 4.77083 41.8021 3.1875 38.5938C1.625 35.3854 0.822917 31.6667 0.78125 27.4375V23.4688C0.78125 16.6146 2.375 11.3021 5.5625 7.53125C8.77083 3.76042 13.2708 1.875 19.0625 1.875C23.8125 1.875 27.6354 3.09375 30.5312 5.53125C33.4271 7.94792 35.1979 11.3854 35.8438 15.8438H29.8438C28.7188 9.82292 25.1354 6.8125 19.0938 6.8125C15.0729 6.8125 12.0208 8.22917 9.9375 11.0625C7.875 13.875 6.83333 17.9583 6.8125 23.3125V27.0312C6.8125 32.1354 7.97917 36.1979 10.3125 39.2188C12.6458 42.2188 15.8021 43.7188 19.7812 43.7188C22.0312 43.7188 24 43.4688 25.6875 42.9688C27.375 42.4688 28.7708 41.625 29.875 40.4375V30.2188H19.3438V25.3438H35.8438V42.0312ZM45.875 48V2.5H60.75C65.6875 2.5 69.3958 3.52083 71.875 5.5625C74.375 7.60417 75.625 10.625 75.625 14.625C75.625 16.75 75.0208 18.6354 73.8125 20.2812C72.6042 21.9062 70.9583 23.1667 68.875 24.0625C71.3333 24.75 73.2708 26.0625 74.6875 28C76.125 29.9167 76.8438 32.2083 76.8438 34.875C76.8438 38.9583 75.5208 42.1667 72.875 44.5C70.2292 46.8333 66.4896 48 61.6562 48H45.875ZM51.875 26.7188V43.0938H61.7812C64.5729 43.0938 66.7708 42.375 68.375 40.9375C70 39.4792 70.8125 37.4792 70.8125 34.9375C70.8125 29.4583 67.8333 26.7188 61.875 26.7188H51.875ZM51.875 21.9062H60.9375C63.5625 21.9062 65.6562 21.25 67.2188 19.9375C68.8021 18.625 69.5938 16.8438 69.5938 14.5938C69.5938 12.0938 68.8646 10.2812 67.4062 9.15625C65.9479 8.01042 63.7292 7.4375 60.75 7.4375H51.875V21.9062ZM93.5 2.5L108.375 39.625L123.25 2.5H131.031V48H125.031V30.2812L125.594 11.1562L110.656 48H106.062L91.1562 11.25L91.75 30.2812V48H85.75V2.5H93.5ZM139.188 30.7812C139.188 27.4688 139.833 24.4896 141.125 21.8438C142.438 19.1979 144.25 17.1562 146.562 15.7188C148.896 14.2812 151.552 13.5625 154.531 13.5625C159.135 13.5625 162.854 15.1562 165.688 18.3438C168.542 21.5312 169.969 25.7708 169.969 31.0625V31.4688C169.969 34.7604 169.333 37.7188 168.062 40.3438C166.812 42.9479 165.01 44.9792 162.656 46.4375C160.323 47.8958 157.635 48.625 154.594 48.625C150.01 48.625 146.292 47.0312 143.438 43.8438C140.604 40.6562 139.188 36.4375 139.188 31.1875V30.7812ZM145 31.4688C145 35.2188 145.865 38.2292 147.594 40.5C149.344 42.7708 151.677 43.9062 154.594 43.9062C157.531 43.9062 159.865 42.7604 161.594 40.4688C163.323 38.1562 164.188 34.9271 164.188 30.7812C164.188 27.0729 163.302 24.0729 161.531 21.7812C159.781 19.4688 157.448 18.3125 154.531 18.3125C151.677 18.3125 149.375 19.4479 147.625 21.7188C145.875 23.9896 145 27.2396 145 31.4688ZM190.781 43.9062C192.844 43.9062 194.646 43.2812 196.188 42.0312C197.729 40.7812 198.583 39.2188 198.75 37.3438H204.219C204.115 39.2812 203.448 41.125 202.219 42.875C200.99 44.625 199.344 46.0208 197.281 47.0625C195.24 48.1042 193.073 48.625 190.781 48.625C186.177 48.625 182.51 47.0938 179.781 44.0312C177.073 40.9479 175.719 36.7396 175.719 31.4062V30.4375C175.719 27.1458 176.323 24.2188 177.531 21.6562C178.74 19.0938 180.469 17.1042 182.719 15.6875C184.99 14.2708 187.667 13.5625 190.75 13.5625C194.542 13.5625 197.688 14.6979 200.188 16.9688C202.708 19.2396 204.052 22.1875 204.219 25.8125H198.75C198.583 23.625 197.75 21.8333 196.25 20.4375C194.771 19.0208 192.938 18.3125 190.75 18.3125C187.812 18.3125 185.531 19.375 183.906 21.5C182.302 23.6042 181.5 26.6562 181.5 30.6562V31.75C181.5 35.6458 182.302 38.6458 183.906 40.75C185.51 42.8542 187.802 43.9062 190.781 43.9062ZM220.156 32.3438L216.531 36.125V48H210.75V0H216.531V29.0312L219.625 25.3125L230.156 14.1875H237.188L224.031 28.3125L238.719 48H231.938L220.156 32.3438ZM264.031 44.6562C261.781 47.3021 258.479 48.625 254.125 48.625C250.521 48.625 247.771 47.5833 245.875 45.5C244 43.3958 243.052 40.2917 243.031 36.1875V14.1875H248.812V36.0312C248.812 41.1562 250.896 43.7188 255.062 43.7188C259.479 43.7188 262.417 42.0729 263.875 38.7812V14.1875H269.656V48H264.156L264.031 44.6562ZM307.031 31.4688C307.031 36.6146 305.854 40.7604 303.5 43.9062C301.146 47.0521 297.958 48.625 293.938 48.625C289.833 48.625 286.604 47.3229 284.25 44.7188V61H278.469V14.1875H283.75L284.031 17.9375C286.385 15.0208 289.656 13.5625 293.844 13.5625C297.906 13.5625 301.115 15.0938 303.469 18.1562C305.844 21.2188 307.031 25.4792 307.031 30.9375V31.4688ZM301.25 30.8125C301.25 27 300.438 23.9896 298.812 21.7812C297.188 19.5729 294.958 18.4688 292.125 18.4688C288.625 18.4688 286 20.0208 284.25 23.125V39.2812C285.979 42.3646 288.625 43.9062 292.188 43.9062C294.958 43.9062 297.156 42.8125 298.781 40.625C300.427 38.4167 301.25 35.1458 301.25 30.8125Z" fill="white"/>
</svg>
